<svg width="207" height="56" viewBox="0 0 207 56" fill="none" xmlns="http://www.w3.org/2000/svg">
<rect width="47" height="46" rx="17" transform="matrix(-1 0 0 1 47 5)" fill="#40A858"/>
<path d="M28.4245 15.6844C27.3651 14.0118 25.5007 13 23.503 13C21.5054 13 19.6409 14.0118 18.5816 15.6844L16.2449 19.3568L14.6105 18.4283C14.102 18.1366 13.4664 18.1783 13.0003 18.5294C12.5341 18.8806 12.3283 19.4758 12.4797 20.0353L13.8962 25.2374C14.102 25.9992 14.901 26.4516 15.6759 26.2492L20.9666 24.8564C21.5356 24.7076 21.9533 24.2374 22.032 23.666C22.1107 23.0946 21.8262 22.5292 21.3177 22.2435L19.5985 21.2674L21.8686 17.7021C22.2197 17.1486 22.8371 16.8093 23.503 16.8093C24.1689 16.8093 24.7864 17.1486 25.1375 17.7021L26.1968 19.3687C26.7537 20.2496 27.9281 20.5293 28.8361 19.9936C29.7623 19.446 30.0589 18.2556 29.4839 17.3509L28.4245 15.6844V15.6844ZM13.0003 27.9932C12.0922 27.4575 10.9179 27.7372 10.3609 28.6181L8.8839 30.9454C8.31487 31.8441 8.0122 32.8738 8.00009 33.9333C7.98193 37.0938 10.5849 39.6711 13.7993 39.6711L19.6288 39.6651V41.5697C19.6288 42.1471 19.9799 42.6709 20.5247 42.8911C21.0695 43.1113 21.693 42.9923 22.1107 42.5816L25.9849 38.7723C26.554 38.2128 26.554 37.3081 25.9849 36.7546L22.1107 32.9453C21.693 32.5346 21.0695 32.4155 20.5247 32.6357C19.9799 32.856 19.6288 33.3798 19.6288 33.9571V35.8618H13.8054C12.74 35.8618 11.8743 35.0047 11.8804 33.9571C11.8804 33.6059 11.9833 33.2607 12.1709 32.9631L13.648 30.6359C14.2231 29.7312 13.9325 28.5408 13.0003 27.9932ZM35.0712 26.148L36.8207 25.154C37.3291 24.8624 37.6137 24.3029 37.535 23.7315C37.4563 23.1601 37.0386 22.6899 36.4696 22.5411L31.1788 21.1483C30.404 20.946 29.6049 21.3983 29.3991 22.1602L27.9826 27.3563C27.8313 27.9158 28.0371 28.505 28.5032 28.8622C28.9693 29.2193 29.6049 29.255 30.1134 28.9633L31.7176 28.0527L34.8351 32.9572C35.0228 33.2548 35.1257 33.6 35.1257 33.9511C35.1317 34.9987 34.2661 35.8558 33.2007 35.8558H31.2515C30.18 35.8558 29.3144 36.7069 29.3144 37.7604C29.3144 38.814 30.18 39.6651 31.2515 39.6651H33.2007C36.4151 39.6651 39.0181 37.0938 38.9999 33.9273C38.9939 32.8679 38.6912 31.8382 38.1161 30.9394L35.0712 26.148V26.148Z" fill="white"/>
<path d="M64.5625 16.25H72.3438C73.8646 16.25 75.1823 16.5104 76.2969 17.0312C77.4115 17.5521 78.2656 18.3229 78.8594 19.3438C79.4635 20.3646 79.7656 21.625 79.7656 23.125C79.7656 24.4271 79.599 25.5156 79.2656 26.3906C78.9427 27.2656 78.4844 27.9896 77.8906 28.5625C77.2969 29.125 76.599 29.5885 75.7969 29.9531L74.0625 30.9688H67.9531L67.9219 26.7344H72.2188C72.7083 26.7344 73.1146 26.6094 73.4375 26.3594C73.7604 26.1094 74 25.7552 74.1562 25.2969C74.3229 24.8281 74.4062 24.2708 74.4062 23.625C74.4062 22.9688 74.3281 22.4062 74.1719 21.9375C74.0156 21.4688 73.7865 21.1094 73.4844 20.8594C73.1927 20.6094 72.8125 20.4844 72.3438 20.4844H69.9062V39H64.5625V16.25ZM74.6406 39L70.6094 28.9375L76.2656 28.9062L80.375 38.7656V39H74.6406ZM89.7344 39.3125C88.526 39.3125 87.4479 39.1458 86.5 38.8125C85.5625 38.4792 84.776 37.9896 84.1406 37.3438C83.5052 36.6875 83.0208 35.8906 82.6875 34.9531C82.3646 34.0156 82.2031 32.9427 82.2031 31.7344V29.8906C82.2031 28.5365 82.3438 27.3542 82.625 26.3438C82.9167 25.3333 83.349 24.4948 83.9219 23.8281C84.4948 23.151 85.224 22.6406 86.1094 22.2969C86.9948 21.9531 88.0365 21.7812 89.2344 21.7812C90.2865 21.7812 91.2188 21.9375 92.0312 22.25C92.8542 22.5625 93.5469 23.0469 94.1094 23.7031C94.6823 24.349 95.1198 25.1771 95.4219 26.1875C95.724 27.1875 95.875 28.375 95.875 29.75V32.2031H84.125V28.9062H90.8594V28.3281C90.8698 27.6406 90.8073 27.1198 90.6719 26.7656C90.5469 26.4115 90.3594 26.1719 90.1094 26.0469C89.8594 25.9115 89.5521 25.8438 89.1875 25.8438C88.7604 25.8438 88.4219 25.9167 88.1719 26.0625C87.9219 26.2083 87.7396 26.4375 87.625 26.75C87.5104 27.0625 87.4323 27.4792 87.3906 28C87.3594 28.5208 87.3438 29.151 87.3438 29.8906V31.7344C87.3438 32.4635 87.401 33.0573 87.5156 33.5156C87.6406 33.974 87.8177 34.3281 88.0469 34.5781C88.2865 34.8281 88.5729 35.0052 88.9062 35.1094C89.25 35.2031 89.6406 35.25 90.0781 35.25C90.7031 35.25 91.3125 35.1458 91.9062 34.9375C92.5 34.7188 93.0052 34.3646 93.4219 33.875L95.5156 37.0625C95.2344 37.4271 94.8177 37.7865 94.2656 38.1406C93.7135 38.4844 93.0573 38.7656 92.2969 38.9844C91.5365 39.2031 90.6823 39.3125 89.7344 39.3125ZM104.219 35.2656C104.573 35.2656 104.859 35.2031 105.078 35.0781C105.297 34.9531 105.453 34.7292 105.547 34.4062C105.651 34.0729 105.693 33.5938 105.672 32.9688H110.469C110.49 34.3646 110.229 35.5365 109.688 36.4844C109.156 37.4219 108.427 38.1302 107.5 38.6094C106.573 39.0781 105.521 39.3125 104.344 39.3125C103.198 39.3125 102.198 39.1458 101.344 38.8125C100.49 38.4688 99.776 37.9635 99.2031 37.2969C98.6406 36.6302 98.2188 35.8021 97.9375 34.8125C97.6562 33.8229 97.5156 32.6719 97.5156 31.3594V29.75C97.5156 28.4375 97.6562 27.2865 97.9375 26.2969C98.2188 25.2969 98.6406 24.4635 99.2031 23.7969C99.776 23.1302 100.484 22.6302 101.328 22.2969C102.182 21.9531 103.177 21.7812 104.312 21.7812C105.542 21.7812 106.62 22.0208 107.547 22.5C108.474 22.9792 109.198 23.7188 109.719 24.7188C110.24 25.7188 110.49 27 110.469 28.5625H105.672C105.693 27.9167 105.656 27.3958 105.562 27C105.479 26.5938 105.328 26.3021 105.109 26.125C104.891 25.9375 104.583 25.8438 104.188 25.8438C103.802 25.8438 103.505 25.9167 103.297 26.0625C103.089 26.2083 102.938 26.4375 102.844 26.75C102.75 27.0625 102.693 27.4688 102.672 27.9688C102.661 28.4583 102.656 29.0521 102.656 29.75V31.3594C102.656 32.0677 102.667 32.6719 102.688 33.1719C102.708 33.6719 102.766 34.0781 102.859 34.3906C102.953 34.6927 103.104 34.9167 103.312 35.0625C103.531 35.1979 103.833 35.2656 104.219 35.2656ZM117.031 37.0156L120.469 22.0938H125.969L120.375 41.5156C120.25 41.9427 120.083 42.401 119.875 42.8906C119.667 43.3906 119.38 43.8646 119.016 44.3125C118.651 44.7604 118.182 45.125 117.609 45.4062C117.036 45.6875 116.333 45.8281 115.5 45.8281C115.021 45.8281 114.688 45.8021 114.5 45.75C114.312 45.7083 113.984 45.6302 113.516 45.5156L113.531 41.75C113.646 41.75 113.729 41.75 113.781 41.75C113.833 41.75 113.917 41.75 114.031 41.75C114.479 41.75 114.833 41.6927 115.094 41.5781C115.354 41.4635 115.552 41.2969 115.688 41.0781C115.823 40.8594 115.922 40.5938 115.984 40.2812L117.031 37.0156ZM116.938 22.0938L119.234 33.9219L119.781 39.5H116.359L111.438 22.0938H116.938ZM133.469 35.2656C133.823 35.2656 134.109 35.2031 134.328 35.0781C134.547 34.9531 134.703 34.7292 134.797 34.4062C134.901 34.0729 134.943 33.5938 134.922 32.9688H139.719C139.74 34.3646 139.479 35.5365 138.938 36.4844C138.406 37.4219 137.677 38.1302 136.75 38.6094C135.823 39.0781 134.771 39.3125 133.594 39.3125C132.448 39.3125 131.448 39.1458 130.594 38.8125C129.74 38.4688 129.026 37.9635 128.453 37.2969C127.891 36.6302 127.469 35.8021 127.188 34.8125C126.906 33.8229 126.766 32.6719 126.766 31.3594V29.75C126.766 28.4375 126.906 27.2865 127.188 26.2969C127.469 25.2969 127.891 24.4635 128.453 23.7969C129.026 23.1302 129.734 22.6302 130.578 22.2969C131.432 21.9531 132.427 21.7812 133.562 21.7812C134.792 21.7812 135.87 22.0208 136.797 22.5C137.724 22.9792 138.448 23.7188 138.969 24.7188C139.49 25.7188 139.74 27 139.719 28.5625H134.922C134.943 27.9167 134.906 27.3958 134.812 27C134.729 26.5938 134.578 26.3021 134.359 26.125C134.141 25.9375 133.833 25.8438 133.438 25.8438C133.052 25.8438 132.755 25.9167 132.547 26.0625C132.339 26.2083 132.188 26.4375 132.094 26.75C132 27.0625 131.943 27.4688 131.922 27.9688C131.911 28.4583 131.906 29.0521 131.906 29.75V31.3594C131.906 32.0677 131.917 32.6719 131.938 33.1719C131.958 33.6719 132.016 34.0781 132.109 34.3906C132.203 34.6927 132.354 34.9167 132.562 35.0625C132.781 35.1979 133.083 35.2656 133.469 35.2656ZM147.312 15V39H142.188V15H147.312ZM157.516 39.3125C156.307 39.3125 155.229 39.1458 154.281 38.8125C153.344 38.4792 152.557 37.9896 151.922 37.3438C151.286 36.6875 150.802 35.8906 150.469 34.9531C150.146 34.0156 149.984 32.9427 149.984 31.7344V29.8906C149.984 28.5365 150.125 27.3542 150.406 26.3438C150.698 25.3333 151.13 24.4948 151.703 23.8281C152.276 23.151 153.005 22.6406 153.891 22.2969C154.776 21.9531 155.818 21.7812 157.016 21.7812C158.068 21.7812 159 21.9375 159.812 22.25C160.635 22.5625 161.328 23.0469 161.891 23.7031C162.464 24.349 162.901 25.1771 163.203 26.1875C163.505 27.1875 163.656 28.375 163.656 29.75V32.2031H151.906V28.9062H158.641V28.3281C158.651 27.6406 158.589 27.1198 158.453 26.7656C158.328 26.4115 158.141 26.1719 157.891 26.0469C157.641 25.9115 157.333 25.8438 156.969 25.8438C156.542 25.8438 156.203 25.9167 155.953 26.0625C155.703 26.2083 155.521 26.4375 155.406 26.75C155.292 27.0625 155.214 27.4792 155.172 28C155.141 28.5208 155.125 29.151 155.125 29.8906V31.7344C155.125 32.4635 155.182 33.0573 155.297 33.5156C155.422 33.974 155.599 34.3281 155.828 34.5781C156.068 34.8281 156.354 35.0052 156.688 35.1094C157.031 35.2031 157.422 35.25 157.859 35.25C158.484 35.25 159.094 35.1458 159.688 34.9375C160.281 34.7188 160.786 34.3646 161.203 33.875L163.297 37.0625C163.016 37.4271 162.599 37.7865 162.047 38.1406C161.495 38.4844 160.839 38.7656 160.078 38.9844C159.318 39.2031 158.464 39.3125 157.516 39.3125ZM172.859 34.75V27.3125C172.859 26.8333 172.823 26.4688 172.75 26.2188C172.677 25.9583 172.557 25.776 172.391 25.6719C172.234 25.5573 172 25.5 171.688 25.5C171.438 25.5 171.234 25.5625 171.078 25.6875C170.922 25.8125 170.812 26.0052 170.75 26.2656C170.688 26.526 170.656 26.8698 170.656 27.2969H165.516C165.516 26.5156 165.667 25.7917 165.969 25.125C166.271 24.4479 166.703 23.8594 167.266 23.3594C167.828 22.8594 168.5 22.474 169.281 22.2031C170.073 21.9219 170.958 21.7812 171.938 21.7812C173.094 21.7812 174.13 21.9688 175.047 22.3438C175.964 22.7083 176.688 23.2969 177.219 24.1094C177.76 24.9219 178.031 26 178.031 27.3438V34.7344C178.031 35.8385 178.089 36.6771 178.203 37.25C178.318 37.8125 178.474 38.3073 178.672 38.7344V39H173.547C173.307 38.4792 173.13 37.8438 173.016 37.0938C172.911 36.3333 172.859 35.5521 172.859 34.75ZM173.438 28.6719L173.469 31.4844H172.141C171.818 31.4844 171.542 31.5625 171.312 31.7188C171.083 31.8646 170.891 32.0625 170.734 32.3125C170.589 32.5625 170.484 32.8438 170.422 33.1562C170.359 33.4583 170.328 33.7708 170.328 34.0938C170.328 34.5521 170.375 34.8854 170.469 35.0938C170.573 35.3021 170.698 35.4375 170.844 35.5C171 35.5521 171.172 35.5781 171.359 35.5781C171.755 35.5781 172.083 35.4948 172.344 35.3281C172.615 35.151 172.807 34.9427 172.922 34.7031C173.036 34.4635 173.068 34.2604 173.016 34.0938L173.547 36.1562C173.37 36.5417 173.198 36.9219 173.031 37.2969C172.865 37.6615 172.656 38 172.406 38.3125C172.156 38.6146 171.849 38.8542 171.484 39.0312C171.12 39.2188 170.661 39.3125 170.109 39.3125C169.234 39.3125 168.422 39.1354 167.672 38.7812C166.932 38.4271 166.333 37.8802 165.875 37.1406C165.427 36.401 165.203 35.4635 165.203 34.3281C165.203 33.5469 165.323 32.8177 165.562 32.1406C165.812 31.4531 166.203 30.849 166.734 30.3281C167.266 29.8073 167.979 29.401 168.875 29.1094C169.781 28.8177 170.885 28.6719 172.188 28.6719H173.438ZM185.891 26.2812V39H180.75V22.0938H185.531L185.891 26.2812ZM189.812 21.9688L189.75 26.8594C189.552 26.8385 189.292 26.8125 188.969 26.7812C188.646 26.75 188.38 26.7344 188.172 26.7344C187.703 26.7344 187.307 26.8073 186.984 26.9531C186.661 27.0885 186.391 27.2969 186.172 27.5781C185.964 27.849 185.812 28.1927 185.719 28.6094C185.625 29.026 185.583 29.5104 185.594 30.0625L184.734 29.4375C184.734 28.3021 184.823 27.2708 185 26.3438C185.188 25.4062 185.448 24.599 185.781 23.9219C186.115 23.2344 186.516 22.7083 186.984 22.3438C187.453 21.9688 187.974 21.7812 188.547 21.7812C188.766 21.7812 188.99 21.7969 189.219 21.8281C189.448 21.8594 189.646 21.9062 189.812 21.9688ZM196.781 25.7031V39H191.641V22.0938H196.453L196.781 25.7031ZM196.172 29.9688L195.016 30C194.995 28.7083 195.109 27.5573 195.359 26.5469C195.62 25.526 195.99 24.6615 196.469 23.9531C196.958 23.2448 197.542 22.7083 198.219 22.3438C198.896 21.9688 199.651 21.7812 200.484 21.7812C201.12 21.7812 201.708 21.8958 202.25 22.125C202.802 22.3542 203.276 22.724 203.672 23.2344C204.068 23.7448 204.375 24.4219 204.594 25.2656C204.812 26.099 204.922 27.1302 204.922 28.3594V39H199.766V28.3438C199.766 27.6667 199.703 27.151 199.578 26.7969C199.464 26.4323 199.281 26.1823 199.031 26.0469C198.792 25.9115 198.484 25.8438 198.109 25.8438C197.745 25.8438 197.432 25.9479 197.172 26.1562C196.922 26.3646 196.719 26.6562 196.562 27.0312C196.417 27.3958 196.312 27.8281 196.25 28.3281C196.198 28.8281 196.172 29.375 196.172 29.9688Z" fill="#40A858"/>
</svg>
